<svg id="svg" version="1.1" xmlns="http://www.w3.org/2000/svg" xmlns:xlink="http://www.w3.org/1999/xlink" width="400" height="400" viewBox="0, 0, 400,400"><g id="svgg"><path id="path0" d="M167.760 52.560 L 166.400 53.920 166.400 141.000 L 166.400 228.080 167.760 229.440 C 169.277 230.957,170.163 231.079,174.800 230.408 C 176.230 230.201,183.250 229.209,190.400 228.203 C 264.686 217.753,258.972 218.732,260.146 216.257 C 261.077 214.296,261.160 68.035,260.232 65.814 C 259.472 63.996,258.019 63.324,253.329 62.621 C 238.024 60.326,172.011 51.200,170.722 51.200 C 169.433 51.200,168.854 51.466,167.760 52.560 M185.597 135.044 C 190.521 139.493,187.931 148.400,181.713 148.400 C 178.435 148.400,175.600 144.948,175.600 140.958 C 175.600 134.885,181.534 131.375,185.597 135.044 M198.302 273.900 C 197.960 274.285,197.472 275.950,197.218 277.600 C 196.631 281.410,194.964 292.585,194.204 297.800 C 193.884 300.000,193.261 304.230,192.820 307.200 C 189.265 331.155,188.870 334.184,189.221 334.839 C 189.985 336.267,204.489 336.482,205.885 335.087 C 206.334 334.637,206.972 331.575,208.009 324.897 C 209.976 312.232,209.996 312.200,216.182 312.200 C 220.502 312.200,223.005 313.017,224.739 314.992 C 227.099 317.680,227.157 318.558,225.640 328.767 C 224.650 335.437,224.634 335.401,228.642 335.740 C 235.964 336.359,241.383 335.919,242.191 334.641 C 243.557 332.479,244.361 320.562,243.367 317.215 C 242.248 313.445,240.954 311.978,236.340 309.248 C 234.276 308.027,234.084 307.219,235.568 306.001 C 236.239 305.450,237.450 304.462,238.259 303.804 C 240.262 302.175,241.001 300.283,241.972 294.291 C 243.333 285.892,243.818 286.400,234.452 286.400 C 224.956 286.400,225.640 285.933,224.388 293.271 C 223.209 300.182,221.780 302.477,217.706 304.001 C 211.029 306.499,210.799 305.632,213.400 287.778 C 215.473 273.549,215.382 274.639,214.571 273.829 C 213.578 272.836,199.192 272.899,198.302 273.900 M123.400 286.029 C 121.420 286.195,115.359 286.346,109.930 286.364 C 99.620 286.398,98.208 286.597,97.643 288.093 C 97.012 289.764,90.699 333.544,90.947 334.530 C 91.282 335.866,92.009 335.988,99.678 335.995 C 108.270 336.002,108.110 336.108,108.980 329.800 C 109.630 325.080,110.571 318.654,112.200 307.800 C 112.761 304.060,113.415 299.560,113.652 297.800 C 114.381 292.393,115.010 291.648,119.555 290.801 C 125.203 289.749,130.614 290.640,132.987 293.014 C 135.635 295.662,135.663 296.905,133.410 311.800 C 129.900 335.000,129.897 335.029,131.426 335.610 C 131.990 335.824,135.480 336.000,139.182 336.000 C 147.557 336.000,147.484 336.039,148.215 331.172 C 148.494 329.318,149.022 325.820,149.388 323.400 C 151.743 307.858,152.799 300.059,152.791 298.260 C 152.752 289.080,141.722 284.490,123.400 286.029 M166.838 286.300 C 166.237 286.795,165.814 287.917,165.394 290.135 C 164.247 296.191,163.985 296.000,173.429 296.000 C 182.090 296.000,182.035 296.024,182.750 291.917 C 183.424 288.047,183.339 286.503,182.426 286.014 C 180.981 285.241,167.832 285.482,166.838 286.300 M278.856 286.032 C 263.145 287.474,253.900 296.619,251.996 312.600 C 249.981 329.507,257.645 336.968,277.000 336.942 C 297.783 336.914,308.572 327.211,309.486 307.726 C 310.263 291.153,300.258 284.067,278.856 286.032 M286.431 290.857 C 291.621 292.412,293.733 298.132,292.818 308.160 C 291.398 323.730,286.398 331.800,278.172 331.800 C 271.646 331.800,268.400 327.145,268.400 317.786 C 268.400 300.463,276.770 287.962,286.431 290.857 M164.535 303.599 C 163.521 304.008,163.350 304.468,162.821 308.200 C 162.603 309.740,161.979 313.880,161.434 317.400 C 160.890 320.920,160.161 325.780,159.815 328.200 C 159.469 330.620,159.096 333.002,158.987 333.494 C 158.512 335.626,159.733 336.000,167.174 336.000 C 177.273 336.000,176.061 337.612,178.597 320.800 C 181.065 304.444,181.041 304.698,180.215 303.872 C 179.466 303.123,166.286 302.893,164.535 303.599 " stroke="none" fill="#ececec" fill-rule="evenodd"></path><path id="path1" d="M168.600 49.093 C 167.076 49.475,165.496 50.934,164.729 52.667 C 163.517 55.407,163.557 226.684,164.771 229.427 C 166.627 233.623,168.748 233.832,184.600 231.386 C 186.580 231.081,191.620 230.369,195.800 229.804 C 199.980 229.239,205.200 228.508,207.400 228.180 C 209.600 227.851,217.160 226.780,224.200 225.799 C 231.240 224.819,238.890 223.745,241.200 223.413 C 243.510 223.080,248.010 222.442,251.200 221.995 C 259.759 220.794,261.759 219.774,262.782 216.088 C 263.472 213.603,263.315 67.421,262.620 65.474 C 261.306 61.787,259.838 61.166,248.795 59.625 C 243.848 58.934,238.090 58.110,236.000 57.793 C 233.910 57.476,226.260 56.398,219.000 55.398 C 211.740 54.399,204.090 53.319,202.000 52.999 C 199.910 52.680,194.780 51.954,190.600 51.385 C 186.420 50.817,180.570 50.004,177.600 49.578 C 172.271 48.815,170.166 48.701,168.600 49.093 M188.009 52.175 C 196.474 53.371,209.340 55.182,216.600 56.200 C 261.381 62.478,259.112 62.052,260.958 64.529 L 261.800 65.659 261.800 140.929 L 261.800 216.200 260.868 217.506 C 259.381 219.591,258.486 219.827,244.592 221.787 C 237.336 222.811,224.380 224.636,215.800 225.844 C 207.220 227.051,194.530 228.844,187.600 229.829 C 168.349 232.563,167.738 232.544,165.931 229.175 C 164.887 227.228,164.778 54.777,165.819 52.762 C 167.549 49.418,168.346 49.396,188.009 52.175 M140.883 64.667 C 136.937 66.612,137.172 61.538,137.293 142.200 L 137.400 213.000 138.239 214.600 C 139.822 217.620,140.538 217.800,150.935 217.800 C 162.412 217.800,161.606 218.371,161.587 210.256 C 161.571 203.143,161.563 203.129,157.180 202.753 C 155.417 202.601,153.711 202.258,153.387 201.990 C 152.876 201.565,152.800 193.714,152.800 140.974 L 152.800 80.445 153.689 79.823 C 154.266 79.418,155.465 79.200,157.107 79.200 C 161.263 79.200,161.600 78.630,161.600 71.600 C 161.600 66.149,161.568 65.931,160.618 64.982 L 159.636 64.000 150.918 64.009 C 143.698 64.017,141.974 64.130,140.883 64.667 M159.520 66.080 C 160.205 66.765,160.187 76.634,159.500 77.071 C 159.225 77.246,157.577 77.497,155.838 77.628 C 150.620 78.022,151.200 70.096,151.200 140.968 C 151.200 190.839,151.297 202.380,151.724 202.963 C 152.285 203.731,154.787 204.354,157.420 204.383 C 159.857 204.409,160.000 204.734,160.000 210.251 C 160.000 214.165,159.874 215.269,159.371 215.771 C 158.502 216.641,143.892 216.700,141.839 215.842 C 138.960 214.639,139.200 221.457,139.200 140.965 L 139.200 68.508 140.055 67.421 C 140.526 66.823,141.291 66.180,141.755 65.992 C 143.134 65.435,158.953 65.513,159.520 66.080 M179.361 135.559 C 177.155 136.904,176.167 140.911,177.346 143.732 C 179.761 149.513,186.914 147.471,186.914 141.000 C 186.914 136.156,183.003 133.338,179.361 135.559 M184.136 136.821 C 187.242 139.264,185.692 146.000,182.024 146.000 C 178.316 146.000,176.563 140.099,179.371 137.069 C 180.600 135.743,182.631 135.637,184.136 136.821 M198.200 271.088 C 196.116 271.595,195.556 272.931,194.610 279.656 C 194.289 281.935,193.564 286.860,192.998 290.600 C 192.433 294.340,191.710 299.200,191.392 301.400 C 191.073 303.600,190.355 308.460,189.796 312.200 C 189.236 315.940,188.407 321.520,187.952 324.600 C 185.825 339.021,185.094 338.000,197.551 338.000 C 209.498 338.000,207.985 339.962,210.975 320.600 C 211.870 314.805,212.073 314.593,216.713 314.621 C 224.464 314.668,225.354 316.751,223.195 329.796 C 221.830 338.049,221.768 338.000,233.551 338.000 C 244.641 338.000,244.099 338.298,245.181 331.600 C 247.253 318.764,246.457 314.642,240.943 309.665 L 238.250 307.235 240.299 305.069 C 242.672 302.560,243.167 301.174,244.391 293.600 C 245.427 287.193,245.414 286.578,244.218 285.382 L 243.236 284.400 234.449 284.400 L 225.661 284.400 224.444 285.424 C 223.724 286.030,223.142 286.969,223.019 287.724 C 222.904 288.426,222.518 290.800,222.161 293.000 C 221.236 298.695,220.194 300.491,217.056 301.802 C 213.255 303.390,213.268 303.984,216.618 281.117 C 218.170 270.523,218.415 270.775,206.674 270.846 C 202.453 270.872,198.640 270.981,198.200 271.088 M215.600 272.800 C 216.639 273.839,216.683 273.196,214.600 287.422 C 212.133 304.272,212.128 304.225,216.479 303.181 C 220.784 302.148,222.241 299.783,223.459 291.849 C 224.456 285.356,223.983 285.644,233.800 285.539 C 245.038 285.419,244.639 285.077,243.254 293.615 C 241.992 301.395,241.824 301.822,238.890 304.691 C 236.007 307.510,236.000 307.387,239.186 309.623 C 244.558 313.391,245.963 318.140,244.637 328.046 C 243.356 337.615,243.094 337.775,229.863 337.011 C 222.942 336.612,223.222 337.120,224.639 327.530 C 226.311 316.223,224.573 313.192,216.427 313.202 C 211.119 313.209,210.876 313.599,209.214 324.800 C 207.749 334.680,207.458 335.833,206.268 336.473 C 205.190 337.054,195.940 337.401,191.827 337.015 C 186.944 336.558,187.045 338.410,190.600 314.344 C 197.054 270.649,196.557 273.587,197.637 272.700 C 199.019 271.564,214.450 271.650,215.600 272.800 M119.200 283.998 C 117.990 284.176,112.713 284.339,107.474 284.360 C 95.330 284.411,95.657 284.225,94.602 291.699 C 94.284 293.954,93.647 298.320,93.187 301.400 C 87.784 337.568,87.963 335.872,89.390 337.200 C 90.463 338.200,90.465 338.200,98.732 338.200 C 110.915 338.200,109.920 339.132,111.795 325.957 C 112.121 323.671,112.845 318.740,113.404 315.000 C 113.964 311.260,114.785 305.680,115.229 302.600 C 116.639 292.832,116.354 293.185,123.075 292.888 C 128.464 292.650,130.775 293.285,132.032 295.346 C 133.243 297.332,133.206 297.781,130.199 317.800 C 126.841 340.160,126.064 338.645,140.728 338.341 C 150.022 338.148,149.359 338.836,151.025 327.672 C 151.572 324.003,152.748 316.140,153.637 310.200 C 156.016 294.306,155.007 290.556,147.300 286.651 C 142.307 284.121,127.739 282.745,119.200 283.998 M164.822 284.716 C 162.837 286.701,161.898 295.902,163.544 297.235 C 165.153 298.538,182.043 298.393,183.371 297.065 C 185.277 295.159,186.296 286.193,184.789 284.588 L 183.861 283.600 174.900 283.600 L 165.938 283.600 164.822 284.716 M274.005 284.430 C 259.464 287.569,251.444 297.176,249.567 313.701 C 248.090 326.702,254.871 336.480,266.802 338.552 C 294.191 343.308,311.793 330.482,311.747 305.800 C 311.725 293.874,307.123 287.691,296.073 284.741 C 291.339 283.477,279.209 283.306,274.005 284.430 M139.939 285.441 C 148.964 287.306,154.000 291.975,154.000 298.478 C 154.000 300.864,148.899 334.668,148.397 335.605 C 147.664 336.976,146.292 337.200,138.674 337.194 C 130.061 337.187,129.461 337.014,129.277 334.485 C 129.172 333.045,131.447 316.213,133.424 303.800 C 134.980 294.025,133.181 291.785,123.800 291.818 C 115.026 291.849,116.006 289.866,112.262 315.158 C 108.634 339.662,110.114 336.957,100.239 337.124 C 91.825 337.267,90.372 337.035,89.820 335.465 C 89.459 334.437,95.352 292.100,96.440 287.907 C 97.001 285.745,97.134 285.720,109.400 285.431 C 115.560 285.285,122.040 285.012,123.800 284.822 C 128.079 284.361,136.221 284.673,139.939 285.441 M183.200 284.915 C 185.571 286.108,184.164 295.846,181.485 296.780 C 179.982 297.304,166.811 297.336,165.450 296.819 C 162.822 295.820,163.670 285.948,166.482 284.819 C 167.938 284.235,182.009 284.316,183.200 284.915 M288.600 284.810 C 303.916 286.077,310.800 292.537,310.800 305.640 C 310.800 324.605,300.409 336.362,282.125 338.085 C 259.513 340.216,248.225 330.766,250.932 311.972 C 253.546 293.823,262.563 286.136,283.200 284.461 C 283.530 284.435,285.960 284.591,288.600 284.810 M281.197 291.974 C 270.236 295.308,264.843 324.338,274.170 329.804 C 283.210 335.102,291.615 323.059,291.759 304.600 C 291.838 294.528,287.977 289.912,281.197 291.974 M287.505 293.847 C 292.832 297.714,291.179 318.984,284.980 326.351 C 280.937 331.156,274.469 330.846,271.948 325.726 C 269.917 321.600,270.812 308.892,273.653 301.525 C 276.412 294.372,283.113 290.657,287.505 293.847 M163.390 301.358 C 161.438 302.209,161.307 302.700,159.178 317.200 C 158.710 320.390,157.983 325.090,157.563 327.644 C 155.788 338.447,155.930 338.582,168.844 338.334 C 178.063 338.157,178.288 338.022,179.147 332.145 C 179.368 330.635,180.015 326.340,180.585 322.600 C 183.689 302.226,183.685 302.329,181.399 301.374 C 179.527 300.591,165.178 300.579,163.390 301.358 M180.563 302.386 C 182.253 303.028,182.215 304.183,180.025 318.946 C 177.448 336.308,177.548 335.895,175.732 336.654 C 173.528 337.575,159.514 337.287,158.528 336.301 C 157.505 335.276,157.734 333.215,161.606 308.600 C 162.681 301.764,162.309 302.000,171.996 302.000 C 176.150 302.000,180.005 302.174,180.563 302.386 " stroke="none" fill="#535353" fill-rule="evenodd"></path><path id="path2" d="M167.719 50.784 C 164.987 52.450,165.200 44.838,165.200 140.886 C 165.200 238.305,164.927 229.574,168.031 231.299 C 169.779 232.270,171.118 232.169,187.600 229.829 C 194.530 228.844,207.220 227.051,215.800 225.844 C 263.185 219.175,259.145 219.922,260.868 217.506 L 261.800 216.200 261.800 140.929 L 261.800 65.659 260.958 64.529 C 259.112 62.052,261.381 62.478,216.600 56.200 C 209.340 55.182,196.474 53.371,188.009 52.175 C 170.838 49.749,169.561 49.661,167.719 50.784 M210.862 56.616 C 258.706 63.339,257.013 63.083,258.461 63.831 C 260.950 65.118,260.800 60.184,260.800 141.027 C 260.800 208.552,260.744 214.997,260.146 216.257 C 258.972 218.732,264.686 217.753,190.400 228.203 C 183.250 229.209,176.230 230.201,174.800 230.408 C 170.163 231.079,169.277 230.957,167.760 229.440 L 166.400 228.080 166.400 141.000 L 166.400 53.920 167.760 52.560 C 169.616 50.704,167.135 50.471,210.862 56.616 M141.755 65.992 C 141.291 66.180,140.526 66.823,140.055 67.421 L 139.200 68.508 139.200 140.965 C 139.200 221.457,138.960 214.639,141.839 215.842 C 143.892 216.700,158.502 216.641,159.371 215.771 C 159.874 215.269,160.000 214.165,160.000 210.251 C 160.000 204.734,159.857 204.409,157.420 204.383 C 154.787 204.354,152.285 203.731,151.724 202.963 C 151.297 202.380,151.200 190.839,151.200 140.968 C 151.200 70.096,150.620 78.022,155.838 77.628 C 157.577 77.497,159.225 77.246,159.500 77.071 C 160.187 76.634,160.205 66.765,159.520 66.080 C 158.953 65.513,143.134 65.435,141.755 65.992 M178.759 134.503 C 175.817 136.458,174.744 141.179,176.443 144.688 C 179.242 150.472,186.630 149.200,187.979 142.703 C 189.281 136.431,183.540 131.326,178.759 134.503 M184.554 135.635 C 187.860 138.236,187.706 144.328,184.281 146.416 C 179.721 149.196,175.205 143.601,177.461 137.965 C 178.636 135.026,182.265 133.835,184.554 135.635 M197.637 272.700 C 196.557 273.587,197.054 270.649,190.600 314.344 C 187.045 338.410,186.944 336.558,191.827 337.015 C 195.940 337.401,205.190 337.054,206.268 336.473 C 207.458 335.833,207.749 334.680,209.214 324.800 C 210.876 313.599,211.119 313.209,216.427 313.202 C 224.573 313.192,226.311 316.223,224.639 327.530 C 223.222 337.120,222.942 336.612,229.863 337.011 C 243.094 337.775,243.356 337.615,244.637 328.046 C 245.963 318.140,244.558 313.391,239.186 309.623 C 236.000 307.387,236.007 307.510,238.890 304.691 C 241.824 301.822,241.992 301.395,243.254 293.615 C 244.639 285.077,245.038 285.419,233.800 285.539 C 223.983 285.644,224.456 285.356,223.459 291.849 C 222.241 299.783,220.784 302.148,216.479 303.181 C 212.128 304.225,212.133 304.272,214.600 287.422 C 216.683 273.196,216.639 273.839,215.600 272.800 C 214.450 271.650,199.019 271.564,197.637 272.700 M214.571 273.829 C 215.382 274.639,215.473 273.549,213.400 287.778 C 210.799 305.632,211.029 306.499,217.706 304.001 C 221.780 302.477,223.209 300.182,224.388 293.271 C 225.640 285.933,224.956 286.400,234.452 286.400 C 243.818 286.400,243.333 285.892,241.972 294.291 C 241.001 300.283,240.262 302.175,238.259 303.804 C 237.450 304.462,236.239 305.450,235.568 306.001 C 234.084 307.219,234.276 308.027,236.340 309.248 C 243.654 313.576,244.846 316.880,243.361 328.709 C 242.458 335.904,242.357 335.987,234.560 335.997 C 224.569 336.009,224.565 336.006,225.640 328.767 C 227.157 318.558,227.099 317.680,224.739 314.992 C 223.005 313.017,220.502 312.200,216.182 312.200 C 209.996 312.200,209.976 312.232,208.009 324.897 C 206.972 331.575,206.334 334.637,205.885 335.087 C 204.489 336.482,189.985 336.267,189.221 334.839 C 188.870 334.184,189.265 331.155,192.820 307.200 C 193.261 304.230,193.884 300.000,194.204 297.800 C 194.964 292.585,196.631 281.410,197.218 277.600 C 197.918 273.052,197.609 273.200,206.433 273.200 C 212.727 273.200,214.045 273.302,214.571 273.829 M123.800 284.822 C 122.040 285.012,115.560 285.285,109.400 285.431 C 97.134 285.720,97.001 285.745,96.440 287.907 C 95.352 292.100,89.459 334.437,89.820 335.465 C 90.372 337.035,91.825 337.267,100.239 337.124 C 110.114 336.957,108.634 339.662,112.262 315.158 C 116.006 289.866,115.026 291.849,123.800 291.818 C 133.181 291.785,134.980 294.025,133.424 303.800 C 131.447 316.213,129.172 333.045,129.277 334.485 C 129.461 337.014,130.061 337.187,138.674 337.194 C 146.292 337.200,147.664 336.976,148.397 335.605 C 148.899 334.668,154.000 300.864,154.000 298.478 C 154.000 288.650,141.352 282.931,123.800 284.822 M166.482 284.819 C 163.670 285.948,162.822 295.820,165.450 296.819 C 166.811 297.336,179.982 297.304,181.485 296.780 C 184.164 295.846,185.571 286.108,183.200 284.915 C 182.009 284.316,167.938 284.235,166.482 284.819 M279.000 284.839 C 262.627 286.334,253.330 295.321,250.932 311.972 C 248.225 330.766,259.513 340.216,282.125 338.085 C 298.101 336.580,307.330 328.281,310.182 312.856 C 312.834 298.511,308.039 289.221,296.324 286.009 C 293.848 285.330,285.144 284.304,283.200 284.461 C 282.870 284.488,280.980 284.658,279.000 284.839 M135.658 286.013 C 146.692 287.114,152.762 291.453,152.791 298.260 C 152.799 300.059,151.743 307.858,149.388 323.400 C 149.022 325.820,148.494 329.318,148.215 331.172 C 147.484 336.039,147.557 336.000,139.182 336.000 C 135.480 336.000,131.990 335.824,131.426 335.610 C 129.897 335.029,129.900 335.000,133.410 311.800 C 135.663 296.905,135.635 295.662,132.987 293.014 C 130.614 290.640,125.203 289.749,119.555 290.801 C 115.010 291.648,114.381 292.393,113.652 297.800 C 113.415 299.560,112.761 304.060,112.200 307.800 C 110.571 318.654,109.630 325.080,108.980 329.800 C 108.110 336.108,108.270 336.002,99.678 335.995 C 92.009 335.988,91.282 335.866,90.947 334.530 C 90.699 333.544,97.012 289.764,97.643 288.093 C 98.208 286.597,99.620 286.398,109.930 286.364 C 115.359 286.346,121.420 286.195,123.400 286.029 C 128.905 285.567,131.152 285.564,135.658 286.013 M182.426 286.014 C 183.339 286.503,183.424 288.047,182.750 291.917 C 182.035 296.024,182.090 296.000,173.429 296.000 C 163.985 296.000,164.247 296.191,165.394 290.135 C 166.262 285.555,166.169 285.600,174.671 285.600 C 178.719 285.600,181.978 285.774,182.426 286.014 M292.730 286.456 C 304.872 288.147,310.093 294.775,309.486 307.726 C 308.572 327.211,297.783 336.914,277.000 336.942 C 257.645 336.968,249.981 329.507,251.996 312.600 C 254.411 292.330,268.763 283.118,292.730 286.456 M281.200 290.774 C 274.818 292.722,271.249 298.368,269.189 309.770 C 266.673 323.704,269.974 331.800,278.172 331.800 C 286.398 331.800,291.398 323.730,292.818 308.160 C 293.983 295.388,289.257 288.314,281.200 290.774 M287.212 292.500 C 295.554 296.714,292.182 324.149,282.650 329.617 C 275.418 333.765,269.597 328.501,269.602 317.816 C 269.609 300.296,278.200 287.947,287.212 292.500 M163.403 302.900 C 162.255 303.891,162.399 303.170,159.401 322.980 C 157.087 338.271,156.401 336.954,166.769 337.124 C 175.757 337.271,176.913 336.993,177.546 334.530 C 178.409 331.171,182.096 304.837,181.844 303.832 C 181.440 302.224,180.234 302.000,171.996 302.000 C 164.740 302.000,164.404 302.035,163.403 302.900 M180.215 303.872 C 181.041 304.698,181.065 304.444,178.597 320.800 C 176.061 337.612,177.273 336.000,167.174 336.000 C 159.733 336.000,158.512 335.626,158.987 333.494 C 159.096 333.002,159.469 330.620,159.815 328.200 C 160.161 325.780,160.890 320.920,161.434 317.400 C 161.979 313.880,162.603 309.740,162.821 308.200 C 163.350 304.468,163.521 304.008,164.535 303.599 C 166.286 302.893,179.466 303.123,180.215 303.872 " stroke="none" fill="#848484" fill-rule="evenodd"></path></g></svg>